<?xml version="1.0" encoding="UTF-8"?>
<svg version="1.1" xmlns="http://www.w3.org/2000/svg" width="50" height="50">
<path d="M0 0 C16.5 0 33 0 50 0 C50 16.5 50 33 50 50 C33.5 50 17 50 0 50 C0 33.5 0 17 0 0 Z " fill="#12BFCC" transform="translate(0,0)"/>
<path d="M0 0 C1.65 0 3.3 0 5 0 C5 4.29 5 8.58 5 13 C8.465 12.505 8.465 12.505 12 12 C12.08912219 8.16774573 11.87867729 4.73437848 11 1 C12.65 0.67 14.3 0.34 16 0 C17.14266516 3.35897545 16.85911331 5.30450352 15.6875 8.625 C15.29111328 9.78902344 15.29111328 9.78902344 14.88671875 10.9765625 C14 13 14 13 12 15 C8.375 15.125 8.375 15.125 5 15 C5 15.99 5 16.98 5 18 C11.435 17.505 11.435 17.505 18 17 C18 13.27840527 17.80842208 10.53684659 17 7 C18.65 6.67 20.3 6.34 22 6 C23.00821159 8.68856424 23.22736824 10.41703215 22.17578125 13.11328125 C21.16880414 15.10250271 20.08837344 17.05412021 19 19 C14.38 19 9.76 19 5 19 C5 19.99 5 20.98 5 22 C10.61 22 16.22 22 22 22 C22 21.34 22 20.68 22 20 C23.65 20 25.3 20 27 20 C27.625 21.875 27.625 21.875 28 24 C27.34 24.66 26.68 25.32 26 26 C24.13183594 25.64477539 24.13183594 25.64477539 22 25 C20.63323368 24.86070644 19.2625433 24.75634699 17.890625 24.68359375 C17.13652344 24.64169922 16.38242187 24.59980469 15.60546875 24.55664062 C14.43951172 24.49766602 14.43951172 24.49766602 13.25 24.4375 C12.45722656 24.39431641 11.66445313 24.35113281 10.84765625 24.30664062 C8.89862185 24.20097009 6.94933252 24.10002034 5 24 C5 24.66 5 25.32 5 26 C6.22976562 25.94779297 6.22976562 25.94779297 7.484375 25.89453125 C8.56203125 25.86746094 9.6396875 25.84039063 10.75 25.8125 C12.35101563 25.76029297 12.35101563 25.76029297 13.984375 25.70703125 C17.34456022 26.03347412 18.60347634 26.6809621 21 29 C23.04336367 32.69751521 23.15363649 34.96227228 22 39 C20.35 38.67 18.7 38.34 17 38 C17.33 35.03 17.66 32.06 18 29 C13.71 28.67 9.42 28.34 5 28 C5 28.99 5 29.98 5 31 C6.093125 30.938125 7.18625 30.87625 8.3125 30.8125 C12 31 12 31 13.6484375 32.1953125 C15.33874519 34.45231294 15.77980321 36.30142277 16.3125 39.0625 C16.49425781 39.94035156 16.67601562 40.81820312 16.86328125 41.72265625 C16.90839844 42.47417969 16.95351563 43.22570313 17 44 C16.34 44.66 15.68 45.32 15 46 C12.875 45.625 12.875 45.625 11 45 C11 43.35 11 41.7 11 40 C11.66 40 12.32 40 13 40 C12.01 36.535 12.01 36.535 11 33 C9.02 32.67 7.04 32.34 5 32 C5 36.62 5 41.24 5 46 C3.35 45.67 1.7 45.34 0 45 C0 43.35 0 41.7 0 40 C-3.62528568 39.79859524 -5.86501708 40.14223235 -9 42 C-11.5625 39.75 -11.5625 39.75 -14 37 C-13.875 35 -13.875 35 -13 33 C-12.65939189 31.33480481 -12.32441604 29.66842534 -12 28 C-12.804375 28.020625 -13.60875 28.04125 -14.4375 28.0625 C-17 28 -17 28 -18 27 C-18.07179964 25.48071962 -18.08392007 23.95832518 -18.0625 22.4375 C-18.05347656 21.61121094 -18.04445313 20.78492187 -18.03515625 19.93359375 C-18.02355469 19.29550781 -18.01195313 18.65742188 -18 18 C-16.35 17.67 -14.7 17.34 -13 17 C-11.7922442 13.37673261 -12.45688872 12.35853631 -14 9 C-12 6.4375 -12 6.4375 -9 4 C-6.10883176 3.85036468 -3.86600184 4.36850807 -1 5 C-0.67 3.35 -0.34 1.7 0 0 Z " fill="#F5FBFC" transform="translate(20,2)"/>
<path d="M0 0 C1.98 0 3.96 0 6 0 C7.79760213 3.81990452 8.28743526 6.78428287 8 11 C7 12 7 12 3.4375 12.0625 C2.303125 12.041875 1.16875 12.02125 0 12 C0 8.04 0 4.08 0 0 Z " fill="#22D2DD" transform="translate(25,3)"/>
<path d="M0 0 C2.08557757 3.12836636 2.36393593 4.48623034 2.6875 8.125 C2.77386719 9.01445312 2.86023437 9.90390625 2.94921875 10.8203125 C2.97435547 11.89925781 2.97435547 11.89925781 3 13 C2 14 2 14 -0.94140625 14.09765625 C-2.73384766 14.08025391 -2.73384766 14.08025391 -4.5625 14.0625 C-6.35880859 14.04896484 -6.35880859 14.04896484 -8.19140625 14.03515625 C-9.11824219 14.02355469 -10.04507812 14.01195312 -11 14 C-11 13.01 -11 12.02 -11 11 C-9.88625 10.896875 -8.7725 10.79375 -7.625 10.6875 C-6.42875 10.460625 -5.2325 10.23375 -4 10 C-1.81024227 6.71536341 -1.00193437 3.79303725 0 0 Z " fill="#2BD4DE" transform="translate(36,6)"/>
<path d="M0 0 C1.91595968 -0.08133791 3.83291932 -0.13934367 5.75 -0.1875 C7.35101563 -0.23970703 7.35101563 -0.23970703 8.984375 -0.29296875 C12.34456022 0.03347412 13.60347634 0.6809621 16 3 C18.04336367 6.69751521 18.15363649 8.96227228 17 13 C15.35 12.67 13.7 12.34 12 12 C12.33 9.03 12.66 6.06 13 3 C8.71 2.67 4.42 2.34 0 2 C0 1.34 0 0.68 0 0 Z " fill="#C2F0F3" transform="translate(25,28)"/>
<path d="M0 0 C1.65 0 3.3 0 5 0 C5.625 1.875 5.625 1.875 6 4 C5.34 4.66 4.68 5.32 4 6 C2.13183594 5.64477539 2.13183594 5.64477539 0 5 C-1.36676632 4.86070644 -2.7374567 4.75634699 -4.109375 4.68359375 C-4.86347656 4.64169922 -5.61757813 4.59980469 -6.39453125 4.55664062 C-7.56048828 4.49766602 -7.56048828 4.49766602 -8.75 4.4375 C-9.54277344 4.39431641 -10.33554687 4.35113281 -11.15234375 4.30664062 C-13.10137815 4.20097009 -15.05066748 4.10002034 -17 4 C-17 3.34 -17 2.68 -17 2 C-11.39 2 -5.78 2 0 2 C0 1.34 0 0.68 0 0 Z " fill="#CFF3F4" transform="translate(42,22)"/>
<path d="M0 0 C1.67542976 0.28604898 3.34385343 0.61781233 5 1 C4.74279326 2.58560393 4.46861201 4.16845924 4.1875 5.75 C4.03667969 6.63171875 3.88585938 7.5134375 3.73046875 8.421875 C2.94585752 11.1910911 1.85404641 12.8259401 0 15 C-2.31 14.67 -4.62 14.34 -7 14 C-7 13.67 -7 13.34 -7 13 C-3.535 12.505 -3.535 12.505 0 12 C0.07103441 8.94552036 0.03813009 6.19065047 -0.5625 3.1875 C-0.706875 2.465625 -0.85125 1.74375 -1 1 C-0.67 0.67 -0.34 0.34 0 0 Z " fill="#DAF6F8" transform="translate(32,2)"/>
<path d="M0 0 C2.58091932 1.59595623 3.82276335 2.52454342 4.8984375 5.41015625 C5.05570313 6.28542969 5.21296875 7.16070312 5.375 8.0625 C5.54773437 8.94035156 5.72046875 9.81820312 5.8984375 10.72265625 C5.93195312 11.47417969 5.96546875 12.22570313 6 13 C5.34 13.66 4.68 14.32 4 15 C1.875 14.625 1.875 14.625 0 14 C0 12.35 0 10.7 0 9 C0.66 9 1.32 9 2 9 C1.34 6.03 0.68 3.06 0 0 Z " fill="#D9F3F6" transform="translate(31,33)"/>
<path d="M0 0 C1.67542976 0.28604898 3.34385343 0.61781233 5 1 C4.33501617 5.38889325 2.81242323 8.9811485 1 13 C-0.24518286 10.50963428 0 8.77378939 0 6 C-0.185625 5.0925 -0.37125 4.185 -0.5625 3.25 C-0.706875 2.5075 -0.85125 1.765 -1 1 C-0.67 0.67 -0.34 0.34 0 0 Z " fill="#E1F7F8" transform="translate(38,8)"/>
<path d="M0 0 C1.65 0.33 3.3 0.66 5 1 C4.67 2.65 4.34 4.3 4 6 C2.35 5.67 0.7 5.34 -1 5 C-0.67 3.35 -0.34 1.7 0 0 Z " fill="#EDF9FA" transform="translate(38,35)"/>
<path d="M0 0 C1.98 0 3.96 0 6 0 C6 0.99 6 1.98 6 3 C4.02 3 2.04 3 0 3 C0 2.01 0 1.02 0 0 Z " fill="#22CBD5" transform="translate(25,30)"/>
</svg>
